<svg height="512pt" viewBox="0 0 511 512" width="512pt" xmlns="http://www.w3.org/2000/svg"><path d="m221.574219 272.941406h12.523437c5.542969 0 10.035156-4.492187 10.035156-10.035156s-4.492187-10.035156-10.035156-10.035156h-12.523437c-5.539063 0-10.035157 4.492187-10.035157 10.035156s4.496094 10.035156 10.035157 10.035156zm0 0"/><path d="m273.539062 272.941406h12.519532c5.542968 0 10.035156-4.492187 10.035156-10.035156s-4.492188-10.035156-10.035156-10.035156h-12.519532c-5.542968 0-10.035156 4.492187-10.035156 10.035156s4.492188 10.035156 10.035156 10.035156zm0 0"/><path d="m228.503906 306.464844c-3.703125 4.125-3.355468 10.472656.773438 14.171875 7.480468 6.707031 16.910156 10.09375 26.363281 10.09375 8.53125 0 17.085937-2.761719 24.242187-8.328125l1.695313-1.320313c4.375-3.402343 5.164063-9.707031 1.757813-14.082031-3.402344-4.375-9.707032-5.164062-14.082032-1.757812l-1.691406 1.316406c-7.421875 5.769531-17.890625 5.40625-24.890625-.871094-4.125-3.695312-10.46875-3.347656-14.167969.777344zm0 0"/><path d="m475.171875 219.359375c-16.074219 0-29.6875 10.75-34.027344 25.433594h-22.910156c-2.179687-36.0625-16.09375-69.824219-39.511719-96.710938l17.992188-17.996093c5.042968 2.757812 10.820312 4.324218 16.957031 4.324218 19.558594 0 35.472656-15.914062 35.472656-35.472656s-15.914062-35.46875-35.472656-35.46875-35.46875 15.910156-35.46875 35.46875c0 6.140625 1.566406 11.917969 4.320313 16.957031l-17.886719 17.890625c-2.65625-2.386718-5.398438-4.699218-8.230469-6.925781-4.351562-3.433594-10.660156-2.683594-14.09375 1.667969-3.429688 4.355468-2.679688 10.664062 1.671875 14.09375 34.625 27.285156 54.484375 68.183594 54.484375 112.210937 0 50.386719-26.234375 94.757813-65.765625 120.175781l-22.105469-27.011718c13.988282-13.726563 22.871094-32.636719 23.496094-53.585938 14.355469-4.308594 24.84375-17.644531 24.84375-33.382812 0-15.726563-10.472656-29.050782-24.808594-33.367188v-5.878906c0-15.3125-5.75-29.597656-16.191406-40.230469-10.433594-10.621093-24.394531-16.46875-39.3125-16.46875h-45.859375c-30.605469 0-55.503906 24.898438-55.503906 55.503907v7.074218c-14.335938 4.320313-24.804688 17.644532-24.804688 33.367188 0 15.742187 10.488281 29.074218 24.84375 33.382812.644531 21.644532 10.105469 41.117188 24.90625 54.9375l-21.929687 26.796875c-40.886719-25.363281-66.847656-70.171875-67.34375-119.851562.066406-.476563.105468-.964844.105468-1.460938 0-.492187-.039062-.980469-.105468-1.457031.785156-78.054688 64.523437-141.316406 142.765625-141.316406 6.671875 0 13.382812.464844 19.9375 1.382812 5.484375.761719 10.558593-3.0625 11.328125-8.550781.765625-5.492187-3.0625-10.5625-8.554688-11.328125-4.183594-.585938-8.421875-1.007812-12.675781-1.265625v-23.222656c14-4.75 24.101563-18.019531 24.101563-33.605469 0-19.558594-15.914063-35.46875-35.472657-35.46875-19.554687 0-35.46875 15.910156-35.46875 35.46875 0 16.558594 11.402344 30.5 26.765625 34.390625v22.433594c-37.035156 2.261719-70.765625 16.957031-97.054687 39.957031l-17.363281-17.359375c2.753906-5.039063 4.320312-10.820313 4.320312-16.957031 0-19.554688-15.910156-35.46875-35.46875-35.46875s-35.46875 15.910156-35.46875 35.46875c0 19.5625 15.910156 35.472656 35.46875 35.472656 6.136719 0 11.914062-1.566406 16.957031-4.324219l17.28125 17.285157c-23.695312 26.484374-38.871093 60.746093-41.171875 98.425781h-23.164062c-4.339844-14.683594-17.953125-25.433594-34.027344-25.433594-19.554688 0-35.46875 15.910156-35.46875 35.472656 0 19.558594 15.910156 35.46875 35.46875 35.46875 16.078125 0 29.6875-10.746093 34.027344-25.433593h23.160156c2.285156 37.496093 17.292969 72.144531 41.429688 98.964843l-20.257813 20.257813c-5.042969-2.753906-10.820313-4.320313-16.957031-4.320313-19.558594 0-35.46875 15.910157-35.46875 35.46875 0 19.5625 15.910156 35.472657 35.46875 35.472657s35.472656-15.910157 35.472656-35.472657c0-6.136719-1.570312-11.914062-4.324219-16.953125l20.390625-20.390625c15.949219 13.832031 34.765625 24.695313 55.742188 31.617188 13.265625 4.375 27.015625 7.007812 41.007812 7.859375v24.769531c-15.363281 3.890625-26.765625 17.832031-26.765625 34.390625 0 19.554688 15.914063 35.46875 35.472657 35.46875 19.558593 0 35.46875-15.910156 35.46875-35.46875 0-15.585938-10.101563-28.855469-24.105469-33.605469v-25.558593c24.746093-1.511719 48.011719-8.570313 68.570312-19.953126.738281-.304687 1.449219-.699218 2.121094-1.191406 9.949219-5.703125 19.246094-12.429687 27.738281-20.027344l18.363282 18.363282c-2.753907 5.039062-4.320313 10.816406-4.320313 16.957031 0 19.558594 15.910156 35.46875 35.46875 35.46875 19.5625 0 35.472656-15.910156 35.472656-35.46875s-15.910156-35.472656-35.472656-35.472656c-6.136719 0-11.914063 1.570312-16.953125 4.324219l-18.445312-18.445313c23-26.289063 37.699218-60.019531 39.960937-97.054687h22.910156c4.339844 14.6875 17.949219 25.433593 34.027344 25.433593 19.554687 0 35.46875-15.910156 35.46875-35.46875 0-19.5625-15.914063-35.472656-35.46875-35.472656zm-61.5-135.820313c8.492187 0 15.402344 6.910157 15.402344 15.398438 0 8.492188-6.910157 15.402344-15.402344 15.402344-8.488281 0-15.398437-6.910156-15.398437-15.402344 0-8.488281 6.910156-15.398438 15.398437-15.398438zm-74.804687 177.488282c0 4.273437-1.828126 8.128906-4.738282 10.832031v-21.664063c2.910156 2.703126 4.738282 6.558594 4.738282 10.832032zm-106.101563-75.875h45.859375c17.835938 0 32.207031 12.96875 34.957031 30.480468l-5.667969-4.304687c-.230468-.175781-.464843-.347656-.695312-.515625-.085938-.0625-.167969-.121094-.253906-.179688-.535156-.382812-1.078125-.746093-1.628906-1.09375-.0625-.039062-.125-.078124-.1875-.117187-6.777344-4.214844-14.585938-5.933594-22.214844-5.144531h-.003906c-.089844.007812-.179688.019531-.273438.027344-.023438.003906-.046875.007812-.070312.007812-.148438.019531-.292969.035156-.441407.054688-.253906.03125-.507812.066406-.761719.105468-.121093.019532-.246093.035156-.367187.054688-5.28125.84375-10.425781 2.902344-15.019531 6.183594l-2.773438 1.980468c-5.386718 3.851563-12.589844 3.800782-17.921875-.121094-13.703125-10.074218-32.488281-8.984374-44.925781 2.515626l-2.886719 2.160156c1.6875-17.976563 16.863281-32.09375 35.277344-32.09375zm-60.238281 75.875c0-4.273438 1.824218-8.128906 4.734375-10.832032v21.664063c-2.910157-2.703125-4.734375-6.558594-4.734375-10.832031zm24.808594 31.003906v-49.59375l15.515624-11.617188c.328126-.246093.640626-.507812.9375-.792968 5.371094-5.15625 13.621094-5.695313 19.621094-1.285156 12.34375 9.078124 29.011719 9.191406 41.480469.285156l2.773437-1.980469c5.402344-3.863281 12.824219-3.75 18.113282.265625l18.28125 13.886719v50.832031c0 32.183594-26.179688 58.363281-58.363282 58.363281-32.179687 0-58.359374-26.179687-58.359374-58.363281zm41.628906-256.5625c0-8.492188 6.910156-15.398438 15.398437-15.398438 8.492188 0 15.402344 6.90625 15.402344 15.398438s-6.910156 15.398438-15.402344 15.398438c-8.488281 0-15.398437-6.90625-15.398437-15.398438zm-154.269532 62.464844c0-8.488282 6.90625-15.398438 15.398438-15.398438s15.398438 6.910156 15.398438 15.398438c0 8.492187-6.90625 15.402344-15.398438 15.402344s-15.398438-6.910157-15.398438-15.402344zm-48.726562 172.296875c-8.492188 0-15.398438-6.910157-15.398438-15.398438 0-8.492187 6.90625-15.402343 15.398438-15.402343s15.398438 6.910156 15.398438 15.402343c0 8.488281-6.90625 15.398438-15.398438 15.398438zm61.402344 160.410156c-8.492188 0-15.398438-6.910156-15.398438-15.402344 0-8.488281 6.90625-15.398437 15.398438-15.398437 8.492187 0 15.398437 6.910156 15.398437 15.398437 0 8.492188-6.90625 15.402344-15.398437 15.402344zm101.046875-44.976563 20.113281-24.574218c11.066406 5.980468 23.726562 9.375 37.164062 9.375 14.144532 0 27.425782-3.761719 38.894532-10.339844l20.191406 24.671875c-18.015625 8.222656-38.023438 12.804687-59.085938 12.804687-15.308593 0-30.363281-2.40625-44.757812-7.152343-4.277344-1.410157-8.453125-3.011719-12.519531-4.785157zm55.945312 106.265626c-8.488281 0-15.398437-6.910157-15.398437-15.398438 0-8.492188 6.910156-15.402344 15.398437-15.402344 8.492188 0 15.402344 6.910156 15.402344 15.402344 0 8.488281-6.910156 15.398438-15.402344 15.398438zm174.707031-80.414063c0 8.492187-6.90625 15.398437-15.398437 15.398437s-15.398437-6.90625-15.398437-15.398437 6.90625-15.398437 15.398437-15.398437 15.398437 6.90625 15.398437 15.398437zm46.101563-141.285156c-8.492187 0-15.398437-6.910157-15.398437-15.398438 0-8.492187 6.90625-15.402343 15.398437-15.402343 8.488281 0 15.398437 6.910156 15.398437 15.402343 0 8.488281-6.910156 15.398438-15.398437 15.398438zm0 0"/><path d="m306.457031 117.355469c1.578125 3.90625 5.335938 6.273437 9.304688 6.273437 1.253906 0 2.527343-.234375 3.757812-.734375 5.140625-2.078125 7.621094-7.929687 5.542969-13.066406l-.144531-.355469c-2.078125-5.136718-7.925781-7.617187-13.066407-5.539062-5.136718 2.078125-7.617187 7.929687-5.539062 13.066406zm0 0"/></svg>