<svg height="512pt" viewBox="-49 0 512 512.00101" width="512pt" xmlns="http://www.w3.org/2000/svg"><path d="m19.472656 241.609375h107.167969c10.695313 0 19.390625-9.25 19.390625-20.617187v-200.375c.003906-11.367188-8.695312-20.617188-19.390625-20.617188h-107.167969c-10.691406 0-19.3906248 9.25-19.3906248 20.617188v51.734374c0 5.554688 4.5039068 10.058594 10.0585938 10.058594s10.058594-4.503906 10.058594-10.058594v-4.804687h105.714843v105.519531h-105.714843v-20.910156c0-5.554688-4.503907-10.058594-10.058594-10.058594s-10.0585938 4.503906-10.0585938 10.058594v68.835938c0 11.367187 8.6992188 20.617187 19.3906248 20.617187zm.726563-194.183594v-26.808593c0-.207032.03125-.375.066406-.5h105.582031c.035156.125.066406.292968.066406.5v26.808593zm105.714843 145.761719v27.804688c0 .207031-.027343.371093-.066406.496093h-105.582031c-.035156-.125-.066406-.289062-.066406-.496093v-27.804688zm0 0"/><path d="m30.488281 153.832031c0 5.554688 4.503907 10.058594 10.058594 10.058594h66.394531c5.554688 0 10.058594-4.503906 10.058594-10.058594v-33.523437c0-5.558594-4.503906-10.0625-10.058594-10.0625h-66.394531c-5.554687 0-10.058594 4.503906-10.058594 10.0625zm20.121094-23.464843h46.273437v13.40625h-46.273437zm0 0"/><path d="m40.546875 99.175781h66.394531c5.554688 0 10.058594-4.503906 10.058594-10.058593 0-5.558594-4.503906-10.058594-10.058594-10.058594h-66.394531c-5.554687 0-10.058594 4.5-10.058594 10.058594 0 5.554687 4.503907 10.058593 10.058594 10.058593zm0 0"/><path d="m394.105469 0h-107.167969c-10.695312 0-19.394531 9.25-19.394531 20.617188v200.375c0 11.367187 8.699219 20.617187 19.394531 20.617187h107.167969c10.691406 0 19.390625-9.25 19.390625-20.617187v-200.375c0-11.367188-8.699219-20.617188-19.390625-20.617188zm-58.578125 121.0625v-11.246094c0-2.679687 2.179687-4.859375 4.863281-4.859375 2.679687 0 4.859375 2.179688 4.859375 4.859375v11.246094c0 2.535156-1.953125 4.625-4.4375 4.839844h-.847656c-2.480469-.214844-4.4375-2.304688-4.4375-4.839844zm-9.160156 24.960938h13.050781c.320312.011718.644531.019531.96875.019531s.648437-.007813.972656-.019531h12.679687c3.402344 0 6.53125 1.707031 8.375 4.566406 3.164063 4.910156 4.835938 10.597656 4.835938 16.4375v6.039062h-54.097656v-6.039062c0-5.839844 1.675781-11.527344 4.839844-16.4375 1.84375-2.859375 4.972656-4.566406 8.375-4.566406zm52.960937-6.332032c-3.605469-5.589844-8.839844-9.722656-14.871094-11.9375.59375-2.132812.910157-4.375.910157-6.691406v-11.246094c0-13.773437-11.203126-24.980468-24.976563-24.980468s-24.980469 11.207031-24.980469 24.980468v11.246094c0 2.269531.304688 4.472656.875 6.566406-6.171875 2.1875-11.535156 6.367188-15.207031 12.0625-5.261719 8.167969-8.042969 17.621094-8.042969 27.335938v6.039062h-5.371094v-105.519531h105.714844v105.519531h-6.007812v-6.039062c0-9.714844-2.78125-19.167969-8.042969-27.335938zm-91.664063-119.074218c0-.207032.027344-.375.066407-.5h105.582031c.035156.125.066406.292968.066406.5v26.808593h-105.714844zm105.714844 200.375c0 .207031-.03125.371093-.066406.496093h-105.582031c-.039063-.125-.066407-.289062-.066407-.496093v-27.804688h105.714844zm0 0"/><path d="m346.390625 23.714844h-13.074219c-5.554687 0-10.0625 4.503906-10.0625 10.058594 0 5.554687 4.507813 10.058593 10.0625 10.058593h13.074219c5.554687 0 10.0625-4.503906 10.0625-10.058593 0-5.554688-4.507813-10.058594-10.0625-10.058594zm0 0"/><path d="m79.78125 23.714844h-13.078125c-5.554687 0-10.058594 4.503906-10.058594 10.058594 0 5.554687 4.503907 10.058593 10.058594 10.058593h13.078125c5.554688 0 10.058594-4.503906 10.058594-10.058593 0-5.554688-4.503906-10.058594-10.058594-10.058594zm0 0"/><path d="m349.105469 203.386719c-2.074219-5.152344-7.933594-7.648438-13.085938-5.574219-5.152343 2.074219-7.648437 7.933594-5.574219 13.089844l.15625.386718c1.578126 3.921876 5.347657 6.304688 9.332032 6.304688 1.25 0 2.523437-.234375 3.753906-.730469 5.152344-2.074219 7.648438-7.933593 5.574219-13.085937zm0 0"/><path d="m394.105469 270.390625h-107.167969c-10.695312 0-19.394531 9.25-19.394531 20.617187v200.375c0 11.367188 8.699219 20.617188 19.394531 20.617188h107.167969c10.691406 0 19.390625-9.246094 19.390625-20.617188v-200.375c0-11.367187-8.699219-20.617187-19.390625-20.617187zm-106.441407 67.546875h105.714844v105.519531h-105.714844zm0-46.929688c0-.207031.027344-.375.066407-.5h105.582031c.035156.125.066406.292969.066406.5v26.8125h-105.714844zm105.714844 200.375c0 .207032-.03125.375-.066406.5h-105.582031c-.039063-.125-.066407-.292968-.066407-.5v-27.804687h105.714844zm0 0"/><path d="m346.390625 294.105469h-13.074219c-5.554687 0-10.0625 4.503906-10.0625 10.058593 0 5.554688 4.507813 10.058594 10.0625 10.058594h13.074219c5.554687 0 10.0625-4.503906 10.0625-10.058594 0-5.554687-4.507813-10.058593-10.0625-10.058593zm0 0"/><path d="m330.601562 481.683594c1.578126 3.921875 5.351563 6.300781 9.332032 6.300781 1.253906 0 2.527344-.234375 3.757812-.730469 5.152344-2.078125 7.648438-7.9375 5.570313-13.09375l-.15625-.386718c-2.078125-5.152344-7.941407-7.644532-13.089844-5.570313-5.152344 2.078125-7.648437 7.941406-5.570313 13.09375zm0 0"/><path d="m64.5 211.308594c1.585938 3.910156 5.351562 6.285156 9.328125 6.285156 1.253906 0 2.535156-.238281 3.773437-.738281 5.148438-2.085938 7.632813-7.953125 5.546876-13.101563l-.15625-.386718c-2.085938-5.152344-7.953126-7.632813-13.101563-5.546876-5.148437 2.085938-7.632813 7.949219-5.546875 13.101563zm0 0"/><path d="m.886719 116.734375c1.578125 3.921875 5.351562 6.304687 9.335937 6.304687 1.25 0 2.523438-.234374 3.753906-.730468 5.152344-2.074219 7.648438-7.9375 5.574219-13.089844l-.15625-.386719c-2.074219-5.15625-7.9375-7.648437-13.089843-5.574219-5.152344 2.074219-7.648438 7.933594-5.574219 13.085938zm0 0"/><path d="m340.523438 411.351562c18.808593 0 34.113281-15.300781 34.113281-34.113281s-15.304688-34.117187-34.113281-34.117187c-18.8125 0-34.117188 15.304687-34.117188 34.117187s15.304688 34.113281 34.117188 34.113281zm0-48.109374c7.714843 0 13.992187 6.277343 13.992187 13.996093s-6.277344 13.996094-13.992187 13.996094c-7.71875 0-14-6.277344-14-13.996094s6.28125-13.996093 14-13.996093zm0 0"/><path d="m370.46875 416.722656h-59.894531c-5.558594 0-10.0625 4.503906-10.0625 10.058594s4.503906 10.058594 10.0625 10.058594h59.894531c5.554688 0 10.058594-4.503906 10.058594-10.058594s-4.503906-10.058594-10.058594-10.058594zm0 0"/><path d="m127.40625 270.390625h-107.167969c-10.691406 0-19.390625 9.25-19.390625 20.617187v200.375c0 11.367188 8.699219 20.617188 19.390625 20.617188h107.167969c10.695312 0 19.394531-9.246094 19.394531-20.617188v-200.375c0-11.367187-8.699219-20.617187-19.394531-20.617187zm-106.441406 67.546875h105.714844v105.519531h-105.714844zm0-46.929688c0-.207031.03125-.375.066406-.5h105.582031c.039063.125.066407.292969.066407.5v26.8125h-105.714844zm105.714844 200.375c0 .207032-.027344.375-.066407.5h-105.582031c-.035156-.125-.066406-.292968-.066406-.5v-27.804687h105.714844zm0 0"/><path d="m79.695312 294.105469h-13.078124c-5.554688 0-10.058594 4.503906-10.058594 10.058593 0 5.554688 4.503906 10.058594 10.058594 10.058594h13.078124c5.554688 0 10.058594-4.503906 10.058594-10.058594 0-5.554687-4.503906-10.058593-10.058594-10.058593zm0 0"/><path d="m63.914062 481.703125c1.582032 3.910156 5.347657 6.28125 9.324219 6.28125 1.257813 0 2.539063-.238281 3.777344-.738281 5.148437-2.089844 7.628906-7.957032 5.542969-13.105469l-.160156-.386719c-2.085938-5.148437-7.949219-7.632812-13.101563-5.539062-5.148437 2.085937-7.628906 7.953125-5.539063 13.101562zm0 0"/><path d="m73.058594 346.753906c-24.230469 0-43.945313 19.710938-43.945313 43.945313 0 24.230469 19.714844 43.941406 43.945313 43.941406 24.230468 0 43.941406-19.710937 43.941406-43.941406 0-24.234375-19.710938-43.945313-43.941406-43.945313zm0 67.769532c-13.136719 0-23.824219-10.691407-23.824219-23.828126 0-13.136718 10.6875-23.824218 23.824219-23.824218 13.136718 0 23.824218 10.6875 23.824218 23.824218 0 13.136719-10.6875 23.828126-23.824218 23.828126zm0 0"/><path d="m74.511719 379.671875-3.375 3.371094c-3.949219-3.488281-9.984375-3.339844-13.761719.4375-3.929688 3.929687-3.929688 10.296875 0 14.226562l6.664062 6.664063c1.964844 1.960937 4.539063 2.945312 7.113282 2.945312 2.574218 0 5.148437-.984375 7.113281-2.949218l10.472656-10.46875c3.925781-3.929688 3.925781-10.300782 0-14.226563-3.929687-3.929687-10.300781-3.929687-14.226562 0zm0 0"/><path d="m170.652344 126.644531h46.875l-.757813.820313c-3.773437 4.078125-3.523437 10.441406.554688 14.214844 1.933593 1.789062 4.382812 2.671874 6.828125 2.671874 2.703125 0 5.402344-1.082031 7.386718-3.226562l16.316407-17.640625c.195312-.207031.382812-.425781.558593-.648437 1.488282-1.875 2.257813-4.253907 2.171876-6.640626-.242188-2.488281-1.042969-4.757812-2.8125-6.59375l-16.882813-17.5c-3.859375-4-10.222656-4.113281-14.226563-.253906-3.996093 3.855469-4.109374 10.222656-.253906 14.222656l.441406.457032h-46.199218c-5.554688 0-10.0625 4.503906-10.0625 10.058594 0 5.558593 4.507812 10.058593 10.0625 10.058593zm0 0"/><path d="m241.539062 387.300781h-46.875l.757813-.820312c3.773437-4.078125 3.523437-10.441407-.554687-14.214844-4.078126-3.769531-10.441407-3.523437-14.214844.554687l-16.316406 17.640626c-.195313.207031-.382813.425781-.558594.648437-1.488282 1.875-2.257813 4.253906-2.171875 6.640625.242187 2.488281 1.042969 4.757812 2.8125 6.59375l16.882812 17.5c1.972657 2.046875 4.605469 3.074219 7.238281 3.074219 2.515626 0 5.03125-.9375 6.984376-2.820313 4-3.855468 4.113281-10.222656.253906-14.222656l-.4375-.457031h46.199218c5.554688 0 10.058594-4.503907 10.058594-10.058594 0-5.558594-4.503906-10.058594-10.058594-10.058594zm0 0"/></svg>