<svg height="511pt" viewBox="1 0 511.99871 511" width="511pt" xmlns="http://www.w3.org/2000/svg"><path d="m491.855469.5h-471.644531c-11.105469 0-20.1406255 9.035156-20.1406255 20.140625v371.8125c0 5.5625 4.5078125 10.070313 10.0703125 10.070313s10.070313-4.507813 10.070313-10.070313v-301.375h471.644531v401.207031h-471.644531v-18.90625c0-5.5625-4.507813-10.074218-10.070313-10.074218s-10.0703125 4.511718-10.0703125 10.074218v18.910156c0 11.105469 9.0351565 20.140626 20.1406255 20.140626h471.644531c11.105469 0 20.144531-9.035157 20.144531-20.140626v-471.648437c0-11.105469-9.035156-20.140625-20.144531-20.140625zm0 70.433594h-471.644531v-50.292969h471.644531zm0 0"/><path d="m451.117188 474.375c11.109374 0 20.144531-9.035156 20.144531-20.144531v-324.378907c0-11.105468-9.035157-20.140624-20.144531-20.140624h-386.875c-11.109376 0-20.144532 9.035156-20.144532 20.140624v324.378907c0 11.109375 9.035156 20.144531 20.144532 20.144531zm-386.875-344.523438h386.875l.015624 324.378907s-.003906 0-.015624 0h-386.875zm0 0"/><path d="m37.984375 50.640625c1.585937 3.921875 5.355469 6.296875 9.339844 6.296875 1.257812 0 2.535156-.234375 3.773437-.734375 5.15625-2.085937 7.644532-7.957031 5.558594-13.113281l-.144531-.355469c-2.082031-5.15625-7.957031-7.644531-13.109375-5.5625-5.160156 2.085937-7.648438 7.957031-5.5625 13.113281zm0 0"/><path d="m68.316406 50.640625c1.585938 3.921875 5.355469 6.296875 9.339844 6.296875 1.257812 0 2.539062-.234375 3.773438-.734375 5.15625-2.085937 7.644531-7.957031 5.558593-13.113281l-.140625-.355469c-2.085937-5.15625-7.960937-7.644531-13.113281-5.5625-5.15625 2.085937-7.648437 7.957031-5.5625 13.113281zm0 0"/><path d="m98.652344 50.640625c1.585937 3.921875 5.355468 6.296875 9.339844 6.296875 1.257812 0 2.535156-.234375 3.773437-.734375 5.15625-2.085937 7.644531-7.957031 5.558594-13.113281l-.144531-.355469c-2.085938-5.15625-7.957032-7.644531-13.113282-5.5625-5.15625 2.085937-7.644531 7.957031-5.558594 13.113281zm0 0"/><path d="m343.15625 50.640625c1.585938 3.921875 5.355469 6.296875 9.339844 6.296875 1.257812 0 2.535156-.234375 3.773437-.734375 5.15625-2.085937 7.644531-7.957031 5.558594-13.113281l-.144531-.355469c-2.082032-5.15625-7.953125-7.644531-13.113282-5.5625-5.15625 2.085937-7.644531 7.957031-5.558593 13.113281zm0 0"/><path d="m392.765625 55.859375h70.578125c5.5625 0 10.070312-4.507813 10.070312-10.070313s-4.507812-10.070312-10.070312-10.070312h-70.578125c-5.558594 0-10.070313 4.507812-10.070313 10.070312s4.507813 10.070313 10.070313 10.070313zm0 0"/><path d="m.875 437.148438c1.589844 3.914062 5.359375 6.289062 9.339844 6.289062 1.257812 0 2.542968-.238281 3.78125-.742188 5.152344-2.09375 7.636718-7.96875 5.542968-13.121093l-.132812-.332031c-2.09375-5.15625-7.964844-7.636719-13.121094-5.546876-5.152344 2.09375-7.636718 7.964844-5.542968 13.121094zm0 0"/><path d="m183.566406 249.203125-27.792968-4.039063-12.429688-25.1875c-1.699219-3.4375-5.199219-5.613281-9.03125-5.613281-3.835938 0-7.335938 2.175781-9.03125 5.613281l-12.433594 25.1875-27.792968 4.039063c-3.792969.550781-6.945313 3.207031-8.128907 6.851563-1.1875 3.648437-.199219 7.648437 2.546875 10.324218l20.113282 19.605469-4.75 27.683594c-.644532 3.78125.90625 7.597656 4.007812 9.851562 3.101562 2.253907 7.214844 2.550781 10.605469.765625l24.863281-13.070312 24.859375 13.070312c1.472656.777344 3.082031 1.15625 4.683594 1.15625 2.089843 0 4.167969-.648437 5.921875-1.921875 3.101562-2.253906 4.65625-6.070312 4.007812-9.851562l-4.746094-27.683594 20.109376-19.605469c2.746093-2.675781 3.734374-6.675781 2.550781-10.324218-1.1875-3.644532-4.335938-6.300782-8.132813-6.851563zm-32.378906 26.054687c-2.375 2.3125-3.457031 5.644532-2.898438 8.914063l2.195313 12.789063-11.484375-6.039063c-1.46875-.773437-3.078125-1.15625-4.6875-1.15625s-3.21875.382813-4.683594 1.15625l-11.484375 6.039063 2.191407-12.789063c.5625-3.269531-.523438-6.601563-2.894532-8.914063l-9.292968-9.058593 12.839843-1.867188c3.28125-.476562 6.117188-2.535156 7.582031-5.507812l5.742188-11.632813 5.742188 11.632813c1.46875 2.972656 4.300781 5.03125 7.582031 5.507812l12.839843 1.867188zm0 0"/><path d="m306.378906 249.203125-27.792968-4.039063-12.429688-25.1875c-1.699219-3.4375-5.199219-5.613281-9.035156-5.613281-3.832032 0-7.332032 2.175781-9.03125 5.613281l-12.429688 25.1875-27.792968 4.039063c-3.796876.550781-6.945313 3.207031-8.132813 6.851563-1.183594 3.648437-.195313 7.648437 2.550781 10.324218l20.113282 19.605469-4.75 27.683594c-.648438 3.777343.90625 7.597656 4.007812 9.851562 1.753906 1.273438 3.832031 1.921875 5.921875 1.921875 1.601563 0 3.210937-.378906 4.683594-1.15625l24.859375-13.070312 24.863281 13.070312c3.390625 1.785156 7.503906 1.488282 10.605469-.765625 3.101562-2.253906 4.65625-6.070312 4.007812-9.851562l-4.75-27.679688 20.113282-19.605469c2.746093-2.675781 3.734374-6.679687 2.550781-10.324218-1.1875-3.648438-4.335938-6.304688-8.132813-6.855469zm-32.382812 26.054687c-2.371094 2.3125-3.453125 5.644532-2.894532 8.914063l2.195313 12.789063-11.484375-6.039063c-1.46875-.773437-3.078125-1.15625-4.6875-1.15625s-3.21875.382813-4.6875 1.15625l-11.484375 6.039063 2.195313-12.789063c.558593-3.269531-.523438-6.601563-2.894532-8.914063l-9.292968-9.058593 12.839843-1.867188c3.28125-.476562 6.113281-2.535156 7.582031-5.507812l5.742188-11.632813 5.742188 11.632813c1.464843 2.972656 4.300781 5.03125 7.582031 5.507812l12.839843 1.867188zm0 0"/><path d="m429.65625 249.203125-27.792969-4.039063-12.429687-25.1875c-1.699219-3.4375-5.199219-5.613281-9.03125-5.613281-3.835938 0-7.335938 2.175781-9.03125 5.613281l-12.433594 25.1875-27.792969 4.039063c-3.796875.550781-6.945312 3.207031-8.132812 6.851563-1.183594 3.648437-.195313 7.648437 2.550781 10.324218l20.113281 19.605469-4.75 27.683594c-.648437 3.777343.90625 7.597656 4.007813 9.851562 3.101562 2.253907 7.214844 2.550781 10.605468.765625l24.863282-13.070312 24.859375 13.070312c1.472656.773438 3.082031 1.15625 4.683593 1.15625 2.089844 0 4.167969-.648437 5.921876-1.921875 3.101562-2.253906 4.65625-6.074219 4.007812-9.851562l-4.75-27.683594 20.113281-19.605469c2.746094-2.675781 3.734375-6.679687 2.550781-10.324218-1.1875-3.644532-4.335937-6.300782-8.132812-6.851563zm-32.382812 26.054687c-2.371094 2.3125-3.457032 5.644532-2.894532 8.914063l2.195313 12.789063-11.484375-6.039063c-2.9375-1.542969-6.441406-1.542969-9.375 0l-11.484375 6.039063 2.195312-12.789063c.558594-3.265625-.523437-6.601563-2.898437-8.914063l-9.292969-9.058593 12.839844-1.863281c3.28125-.476563 6.117187-2.539063 7.582031-5.511719l5.746094-11.632813 5.742187 11.632813c1.464844 2.972656 4.300781 5.035156 7.582031 5.511719l12.839844 1.863281zm0 0"/></svg>