<svg height="511pt" viewBox="1 -50 511.99899 511" width="511pt" xmlns="http://www.w3.org/2000/svg"><path d="m289.675781 140.804688c1.304688 0 2.632813-.257813 3.914063-.796876 9.257812-3.917968 19.09375-5.902343 29.242187-5.902343 9.308594 0 18.390625 1.679687 26.992188 4.992187 5.183593 1.992188 11.007812-.589844 13.003906-5.777344 1.996094-5.183593-.589844-11.007812-5.773437-13.003906-10.917969-4.203125-22.433594-6.332031-34.222657-6.332031-12.855469 0-25.332031 2.519531-37.082031 7.488281-5.117188 2.164063-7.511719 8.070313-5.347656 13.1875 1.625 3.839844 5.351562 6.144532 9.273437 6.144532zm0 0"/><path d="m378.882812 219.308594h20.113282c4.769531 26.617187 28.078125 46.890625 56.046875 46.890625 31.40625 0 56.957031-25.550781 56.957031-56.953125 0-31.40625-25.550781-56.953125-56.957031-56.953125-27.96875 0-51.277344 20.269531-56.046875 46.890625h-20.113282c-4.769531-26.621094-28.078124-46.890625-56.046874-46.890625-27.972657 0-51.28125 20.269531-56.046876 46.890625h-21.378906c-4.765625-26.621094-28.074218-46.890625-56.046875-46.890625-27.96875 0-51.277343 20.269531-56.042969 46.890625h-20.003906c-4.765625-26.621094-28.074218-46.890625-56.046875-46.890625-31.402343 0-56.953125 25.546875-56.953125 56.953125 0 27.96875 20.273438 51.28125 46.894532 56.046875v20.203125c-26.621094 4.765625-46.894532 28.074218-46.894532 56.046875 0 31.40625 25.550782 56.953125 56.953125 56.953125 31.40625 0 56.957031-25.550782 56.957031-56.953125 0-27.972657-20.273437-51.28125-46.894531-56.046875v-20.203125c23.351563-4.183594 41.804688-22.636719 45.984375-45.988281h20.003906c4.765626 26.621093 28.074219 46.894531 56.042969 46.894531 27.972657 0 51.28125-20.273438 56.046875-46.894531h21.378906c4.765626 26.621093 28.074219 46.894531 56.046876 46.894531 27.96875 0 51.277343-20.273438 56.046874-46.890625zm76.160157-46.894532c20.3125 0 36.832031 16.523438 36.832031 36.832032s-16.519531 36.832031-36.832031 36.832031c-20.308594 0-36.832031-16.523437-36.832031-36.832031s16.523437-36.832032 36.832031-36.832032zm-360.941407 169.128907c0 20.3125-16.523437 36.832031-36.832031 36.832031-20.308593 0-36.832031-16.523438-36.832031-36.832031 0-20.308594 16.523438-36.832031 36.832031-36.832031 20.308594 0 36.832031 16.523437 36.832031 36.832031zm-36.832031-95.464844c-20.308593 0-36.832031-16.523437-36.832031-36.832031s16.523438-36.832032 36.832031-36.832032c20.308594 0 36.832031 16.523438 36.832031 36.832032s-16.523437 36.832031-36.832031 36.832031zm132.09375 0c-20.308593 0-36.832031-16.523437-36.832031-36.832031s16.523438-36.832032 36.832031-36.832032c20.3125 0 36.832031 16.523438 36.832031 36.832032s-16.519531 36.832031-36.832031 36.832031zm133.472657 0c-20.3125 0-36.832032-16.523437-36.832032-36.832031s16.519532-36.832032 36.832032-36.832032c20.308593 0 36.832031 16.523438 36.832031 36.832032s-16.523438 36.832031-36.832031 36.832031zm0 0"/><path d="m15.519531 110.085938h16.535157l.074218 3.769531c.125 6.488281 4.152344 12.097656 10.257813 14.296875 1.746093.628906 3.539062.933594 5.308593.933594 4.417969 0 8.6875-1.902344 11.710938-5.414063l11.6875-13.585937h88.148438c8.558593 0 15.519531-6.960938 15.519531-15.515626v-78.554687c0-8.554687-6.960938-15.515625-15.519531-15.515625h-143.722657c-8.558593 0-15.519531 6.960938-15.519531 15.515625v78.554687c0 8.554688 6.960938 15.515626 15.519531 15.515626zm4.601563-89.464844h134.515625v69.34375h-85.65625c-4.527344 0-8.8125 1.96875-11.761719 5.398437l-5.570312 6.472657c-1.660157-6.785157-7.835938-11.871094-15.078126-11.871094h-16.449218zm0 0"/><path d="m496.195312 301.558594h-16.535156l-.074218-3.765625c-.125-6.488281-4.152344-12.097657-10.261719-14.296875-6.105469-2.199219-12.785157-.4375-17.015625 4.480468l-11.6875 13.582032h-88.148438c-8.558594 0-15.519531 6.960937-15.519531 15.519531v78.550781c0 8.558594 6.960937 15.519532 15.519531 15.519532h143.722656c8.558594 0 15.519532-6.960938 15.519532-15.519532v-78.550781c0-8.558594-6.960938-15.519531-15.519532-15.519531zm-4.601562 89.46875h-134.519531v-69.34375h85.660156c4.527344 0 8.816406-1.96875 11.765625-5.398438l5.566406-6.472656c1.660156 6.785156 7.835938 11.871094 15.078125 11.871094h16.449219zm0 0"/><path d="m45.792969 58.707031c2.175781 5.382813 8.671875 7.824219 13.863281 5.207031 4.613281-2.324218 6.726562-7.96875 4.789062-12.753906l-.132812-.332031c-2.058594-5.082031-8.019531-7.609375-13.101562-5.554687-5.082032 2.054687-7.609376 8.015624-5.554688 13.097656zm0 0"/><path d="m76.644531 58.707031c2.175781 5.382813 8.671875 7.824219 13.863281 5.207031 4.613282-2.324218 6.726563-7.96875 4.792969-12.753906l-.136719-.332031c-2.054687-5.082031-8.015624-7.609375-13.097656-5.554687-5.085937 2.054687-7.613281 8.015624-5.554687 13.097656zm0 0"/><path d="m107.5 58.707031c2.175781 5.382813 8.671875 7.824219 13.863281 5.207031 4.613281-2.324218 6.726563-7.96875 4.789063-12.753906l-.132813-.332031c-2.054687-5.082031-8.019531-7.609375-13.101562-5.554687-5.082031 2.054687-7.609375 8.015624-5.554688 13.097656zm0 0"/><path d="m246.152344 155.792969c2.175781 5.382812 8.671875 7.824219 13.863281 5.210937 4.613281-2.324218 6.726563-7.96875 4.789063-12.753906l-.132813-.335938c-2.054687-5.082031-8.015625-7.609374-13.101563-5.554687-5.082031 2.058594-7.609374 8.015625-5.554687 13.101563zm0 0"/><path d="m402.160156 353.328125c-2.054687-5.082031-8.015625-7.609375-13.097656-5.554687-5.085938 2.054687-7.613281 8.015624-5.554688 13.101562l.132813.332031c2.179687 5.382813 8.671875 7.824219 13.863281 5.210938 4.613282-2.324219 6.726563-7.96875 4.792969-12.753907zm0 0"/><path d="m433.015625 353.328125c-2.058594-5.082031-8.019531-7.609375-13.101563-5.554687-5.082031 2.054687-7.609374 8.015624-5.554687 13.101562l.136719.332031c2.175781 5.382813 8.671875 7.824219 13.863281 5.210938 4.609375-2.324219 6.726563-7.96875 4.789063-12.753907zm0 0"/><path d="m463.863281 353.316406c-2.0625-5.078125-8.027343-7.601562-13.105469-5.539062-5.082031 2.0625-7.601562 8.027344-5.539062 13.105468l.136719.335938c2.183593 5.378906 8.679687 7.8125 13.871093 5.191406 4.605469-2.332031 6.714844-7.976562 4.773438-12.761718zm0 0"/></svg>