<svg height="511.99899pt" viewBox="1 1 511.99899 511.99899" width="511.99899pt" xmlns="http://www.w3.org/2000/svg"><path d="m279.449219 278.777344h15.644531c5.570312 0 10.085938-4.511719 10.085938-10.082032 0-5.566406-4.515626-10.082031-10.085938-10.082031h-15.644531c-5.566407 0-10.082031 4.515625-10.082031 10.082031 0 5.570313 4.515624 10.082032 10.082031 10.082032zm0 0"/><path d="m225.007812 324.757812c-1.722656 1.921876-2.574218 4.324219-2.574218 6.71875 0 2.769532 1.128906 5.527344 3.351562 7.519532 8.882813 7.960937 20.078125 11.984375 31.300782 11.984375 10.128906 0 20.285156-3.277344 28.78125-9.886719l2.121093-1.648438c2.554688-1.984374 3.890625-4.957031 3.890625-7.960937.003906-2.164063-.691406-4.347656-2.121094-6.1875-3.421874-4.394531-9.753906-5.1875-14.152343-1.769531l-2.117188 1.648437c-10.210937 7.9375-24.609375 7.433594-34.242187-1.199219-4.144532-3.714843-10.519532-3.367187-14.238282.78125zm0 0"/><path d="m214.527344 278.777344h15.644531c5.566406 0 10.082031-4.511719 10.082031-10.082032 0-5.566406-4.515625-10.082031-10.082031-10.082031h-15.644531c-5.570313 0-10.085938 4.515625-10.085938 10.082031 0 5.570313 4.515625 10.082032 10.085938 10.082032zm0 0"/><path d="m501.917969 245.917969h-44.03125c-6.347657-101.304688-88.035157-182.496094-189.5625-188.003907v-47.832031c0-5.566406-4.515625-10.082031-10.082031-10.082031-5.570313 0-10.085938 4.515625-10.085938 10.082031v47.753907c-102.375 4.617187-185.011719 86.167968-191.394531 188.082031h-46.679688c-5.566406 0-10.082031 4.515625-10.082031 10.082031s4.515625 10.082031 10.082031 10.082031h46.382813c2.621094 70.660157 42.207031 134.941407 104.652344 169.042969 10.609374 5.796875 21.78125 10.644531 33.199218 14.410156 17.386719 5.734375 35.457032 9.023438 53.839844 9.851563v42.527343c0 5.570313 4.515625 10.085938 10.082031 10.085938 5.570313 0 10.085938-4.515625 10.085938-10.085938v-42.625c30.570312-1.679687 60.492187-10.304687 87.136719-25.242187 61.265624-34.339844 100.113281-98.203125 102.714843-167.964844h43.738281c5.570313 0 10.085938-4.515625 10.085938-10.082031s-4.515625-10.082031-10.082031-10.082031zm-315.292969 85.683593c-3.183594-8.441406-4.839844-17.496093-4.839844-26.511718v-63.195313l20.371094-15.25c.332031-.246093.644531-.515625.941406-.796875 7.574219-7.273437 19.210938-8.035156 27.667969-1.8125 14.5625 10.707032 34.234375 10.84375 48.941406.335938l3.46875-2.476563c7.71875-5.511719 17.984375-5.363281 25.542969.375l23.8125 18.089844v64.730469c0 18.480468-6.835938 36.3125-19.066406 50.136718-3.34375 3.78125-7.132813 7.207032-11.171875 10.230469-3.277344 2.457031-6.707031 4.621094-10.269531 6.488281-10.691407 5.597657-22.546876 8.515626-34.867188 8.515626-15.625 0-30.625-4.753907-43.378906-13.753907h-.003906c-12.4375-8.777343-21.753907-20.984375-27.035157-34.832031-.035156-.09375-.082031-.183594-.113281-.273438-.417969-1.109374.03125.089844 0 0zm-27.046875-48.246093c-5.78125-4.128907-9.253906-11.195313-8.738281-18.320313.511718-7.074218 4.542968-13.546875 10.777344-16.996094v36.621094c-.703126-.390625-1.386719-.835937-2.039063-1.304687-.199219-.140625.585937.421875 0 0zm131.003906-114.023438c8.886719.894531 17.214844 4.445313 24.21875 9.933594 6.742188 5.285156 11.765625 12.742187 14.691407 20.742187 1.753906 4.792969 2.699218 9.84375 2.925781 14.9375l-11.503907-8.734374c-14.632812-11.113282-34.511718-11.40625-49.460937-.726563l-3.464844 2.476563c-7.597656 5.425781-17.753906 5.355468-25.273437-.175782-16.199219-11.910156-38.425782-10.597656-53.101563 3.058594l-7.828125 5.859375v-.886719c0-25.765625 20.957032-46.722656 46.722656-46.722656h57.296876c1.617187 0 3.207031.082031 4.777343.238281.523438.054688-1.570312-.15625 0 0zm64.15625 80.007813c5.777344 4.128906 9.253907 11.199218 8.738281 18.320312-.511718 7.078125-4.546874 13.546875-10.777343 16.996094v-36.617188c.703125.390626 1.382812.835938 2.039062 1.300782.195313.144531-.589843-.417969 0 0zm-96.5 161.15625c-5.566406 0-10.082031 4.511718-10.082031 10.082031v18.609375c-17.800781-.886719-35.460938-4.371094-52.226562-10.429688-4.816407-1.738281-9.558594-3.6875-14.207032-5.832031l28.386719-34.6875c11.214844 6.371094 23.816406 10.449219 36.644531 11.785157 13.265625 1.378906 26.480469.066406 39.226563-3.855469 7.113281-2.1875 13.976562-5.300781 20.351562-9.144531l28.535157 34.980468c-20.808594 9.875-43.457032 15.671875-66.542969 17.082032v-18.507813c0-5.570313-4.515625-10.082031-10.085938-10.082031zm94.625 1.664062-30.421875-37.296875c14.714844-13.722656 24.707032-31.871093 28.523438-51.613281 1.085937-5.621094 1.664062-11.34375 1.726562-17.074219 13.621094-3.445312 24.898438-14.09375 29.085938-27.507812 4.328125-13.867188.933594-29.097657-8.765625-39.875-5.367188-5.964844-12.535157-10.300781-20.3125-12.273438v-9.207031c0-18.480469-6.9375-35.722656-19.53125-48.542969-12.566407-12.796875-29.386719-19.84375-47.363281-19.84375h-57.296876c-36.882812 0-66.890624 30.007813-66.890624 66.890625v10.703125c-13.683594 3.464844-24.988282 14.195313-29.132813 27.683594-4.285156 13.9375-.773437 29.214844 9.050781 39.957031 5.332032 5.835938 12.421875 10.074219 20.089844 12.015625.234375 20.851563 7.527344 41.5 20.4375 57.875 3.507812 4.453125 7.386719 8.640625 11.625 12.414063l-15.3125 18.710937-14.808594 18.09375c-51.789062-31.441406-84.339844-86.679687-86.835937-147.1875h14.691406c5.570313 0 10.085937-4.515625 10.085937-10.082031s-4.515624-10.082031-10.085937-10.082031h-14.441406c6.328125-90.789063 79.921875-163.339844 171.175781-167.917969v13.421875c0 5.570313 4.515625 10.082031 10.085938 10.082031 5.566406 0 10.082031-4.511718 10.082031-10.082031v-13.289063c90.398437 5.457032 163.054687 77.605469 169.34375 167.785157h-17.089844c-5.570313 0-10.082031 4.515625-10.082031 10.082031s4.511718 10.082031 10.082031 10.082031h17.339844c-2.476563 59.667969-34.34375 114.46875-85.054688 146.078125zm0 0"/><path d="m41.132812 157.636719c1.457032.734375 3.011719 1.085937 4.539063 1.085937 3.683594 0 7.234375-2.023437 9.007813-5.535156 12.046874-23.828125 27.964843-45.050781 47.3125-63.078125 14.6875-13.6875 31.195312-25.359375 49.0625-34.691406 4.9375-2.578125 6.847656-8.667969 4.265624-13.605469-2.578124-4.9375-8.667968-6.851562-13.601562-4.269531-19.472656 10.171875-37.460938 22.890625-53.472656 37.8125-21.09375 19.652343-38.441406 42.777343-51.5625 68.734375-2.511719 4.96875-.523438 11.035156 4.449218 13.546875zm0 0"/><path d="m173.417969 32.714844c1.589843 3.921875 5.363281 6.300781 9.351562 6.300781 1.257813 0 2.539063-.238281 3.78125-.742187 5.160157-2.089844 7.652344-7.96875 5.558594-13.128907l-.171875-.429687c-2.09375-5.164063-7.972656-7.652344-13.132812-5.5625-5.160157 2.089844-7.648438 7.96875-5.558594 13.132812zm0 0"/></svg>