<?xml version="1.0" encoding="utf-8"?>
<!-- Generator: Adobe Illustrator 23.0.6, SVG Export Plug-In . SVG Version: 6.00 Build 0)  -->
<svg version="1.1" id="Layer_1" xmlns="http://www.w3.org/2000/svg" xmlns:xlink="http://www.w3.org/1999/xlink" x="0px" y="0px"
	 viewBox="0 0 259.2 254.4" style="enable-background:new 0 0 259.2 254.4;" xml:space="preserve">
<style type="text/css">
	.st0{opacity:0.8;fill:#29ABE2;}
	.st1{opacity:0.8;fill:#39B54A;}
	.st2{opacity:0.8;fill:#FCEE21;}
	.st3{opacity:0.8;fill:#F7931E;}
	.st4{opacity:0.8;fill:#006837;}
	.st5{opacity:0.8;fill:#C1272D;}
	.st6{opacity:0.8;fill:#662D91;}
	.st7{opacity:0.8;fill:#ED1C24;}
	.st8{opacity:0.8;fill:#FBB03B;}
	.st9{opacity:0.8;fill:#00A99D;}
	.st10{opacity:0.8;fill:#2E3192;}
	.st11{opacity:0.8;fill:#0071BC;}
</style>
<ellipse class="st0" cx="69.47" cy="126.19" rx="59.64" ry="17.01"/>
<ellipse class="st1" cx="129.11" cy="184.78" rx="17.01" ry="59.64"/>
<ellipse transform="matrix(0.866 -0.5 0.5 0.866 -67.3218 105.0549)" class="st2" cx="162.37" cy="178.15" rx="17.01" ry="59.64"/>
<ellipse class="st3" cx="187.09" cy="126.19" rx="59.64" ry="17.01"/>
<ellipse transform="matrix(0.5 -0.866 0.866 0.5 -105.7944 171.7486)" class="st4" cx="95.84" cy="177.49" rx="59.64" ry="17.01"/>
<ellipse transform="matrix(0.5 -0.866 0.866 0.5 13.2488 179.8444)" class="st5" cx="162.37" cy="78.45" rx="59.64" ry="17.01"/>
<ellipse class="st6" cx="129.11" cy="69.92" rx="17.01" ry="59.64"/>
<ellipse transform="matrix(0.866 -0.5 0.5 0.866 -24.489 103.8056)" class="st7" cx="181.46" cy="97.6" rx="59.64" ry="17.01"/>
<ellipse transform="matrix(0.5 -0.866 0.866 0.5 -47.3153 235.2715)" class="st8" cx="180.09" cy="158.61" rx="17.01" ry="59.64"/>
<ellipse transform="matrix(0.866 -0.5 0.5 0.866 -68.1529 58.8738)" class="st9" cx="75.78" cy="156.61" rx="59.64" ry="17.01"/>
<ellipse transform="matrix(0.866 -0.5 0.5 0.866 -26.8839 58.5648)" class="st10" cx="95.84" cy="79.45" rx="17.01" ry="59.64"/>
<ellipse transform="matrix(0.5 -0.866 0.866 0.5 -51.4665 117.2215)" class="st11" cx="75.78" cy="103.18" rx="17.01" ry="59.64"/>
</svg>
